<?xml version="1.0" encoding="UTF-8" standalone="no"?>
<!DOCTYPE svg PUBLIC "-//W3C//DTD SVG 1.1//EN"
 "http://www.w3.org/Graphics/SVG/1.1/DTD/svg11.dtd">
<!-- Generated by graphviz version 2.40.1 (20161225.0304)
 -->
<!-- Title: foo Pages: 1 -->
<svg width="138pt" height="116pt"
 viewBox="0.00 0.00 138.25 116.00" xmlns="http://www.w3.org/2000/svg" xmlns:xlink="http://www.w3.org/1999/xlink">
<g id="graph0" class="graph" transform="scale(1 1) rotate(0) translate(4 112)">
<title>foo</title>
<polygon fill="#ffffff" stroke="transparent" points="-4,4 -4,-112 134.2474,-112 134.2474,4 -4,4"/>
<!-- bar -->
<g id="node1" class="node">
<title>bar</title>
<g id="a_node1"><a xlink:href="bar.txt" xlink:title="bar">
<ellipse fill="none" stroke="#000000" cx="103.2474" cy="-90" rx="27" ry="18"/>
<text text-anchor="middle" x="103.2474" y="-86.3" font-family="Times,serif" font-size="14.00" fill="#000000">bar</text>
</a>
</g>
</g>
<!-- floyd -->
<g id="node2" class="node">
<title>floyd</title>
<g id="a_node2"><a xlink:href="floyd.txt" xlink:title="floyd">
<ellipse fill="none" stroke="#000000" cx="29.2474" cy="-18" rx="29.4969" ry="18"/>
<text text-anchor="middle" x="29.2474" y="-14.3" font-family="Times,serif" font-size="14.00" fill="#000000">floyd</text>
</a>
</g>
</g>
<!-- bar&#45;&gt;floyd -->
<g id="edge1" class="edge">
<title>bar&#45;&gt;floyd</title>
<path fill="none" stroke="#000000" d="M87.9146,-75.0816C77.6353,-65.0801 63.9112,-51.7269 52.3214,-40.4504"/>
<polygon fill="#000000" stroke="#000000" points="54.6792,-37.8611 45.0712,-33.3961 49.7977,-42.8782 54.6792,-37.8611"/>
</g>
<!-- baz -->
<g id="node3" class="node">
<title>baz</title>
<g id="a_node3"><a xlink:href="baz.txt" xlink:title="baz">
<ellipse fill="none" stroke="#000000" cx="103.2474" cy="-18" rx="27" ry="18"/>
<text text-anchor="middle" x="103.2474" y="-14.3" font-family="Times,serif" font-size="14.00" fill="#000000">baz</text>
</a>
</g>
</g>
<!-- bar&#45;&gt;baz -->
<g id="edge2" class="edge">
<title>bar&#45;&gt;baz</title>
<path fill="none" stroke="#000000" d="M97.3317,-72.2022C96.5272,-64.1807 96.3046,-54.5231 96.6636,-45.5957"/>
<polygon fill="#000000" stroke="#000000" points="100.1571,-45.8099 97.3524,-35.593 93.1736,-45.3289 100.1571,-45.8099"/>
</g>
<!-- baz&#45;&gt;bar -->
<g id="edge3" class="edge">
<title>baz&#45;&gt;bar</title>
<path fill="none" stroke="#000000" d="M109.1424,-35.593C109.9568,-43.5865 110.1894,-53.2363 109.8402,-62.1759"/>
<polygon fill="#000000" stroke="#000000" points="106.345,-61.9891 109.1631,-72.2022 113.3291,-62.4608 106.345,-61.9891"/>
</g>
</g>
</svg>
